<?xml version="1.0" encoding="UTF-8"?>
<!DOCTYPE svg PUBLIC "-//W3C//DTD SVG 1.1//EN" "http://www.w3.org/Graphics/SVG/1.1/DTD/svg11.dtd">
<svg version="1.1" xmlns="http://www.w3.org/2000/svg" xmlns:xlink="http://www.w3.org/1999/xlink" x="0" y="0" width="500" height="500" viewBox="0, 0, 500, 500">
  <g id="Background">
    <rect x="0" y="0" width="500" height="500" fill="#FFFFFF"/>
  </g>
  <g id="Layer_1">
    <g>
      <path d="M144.231,20 L355.769,20 C366.39,20 375,30.447 375,43.333 L375,136.667 C375,149.553 366.39,160 355.769,160 L144.231,160 C133.61,160 125,149.553 125,136.667 L125,43.333 C125,30.447 133.61,20 144.231,20 z" fill="#1B9DD3"/>
      <g>
        <path d="M144.231,20 L355.769,20 C366.39,20 375,30.447 375,43.333 L375,136.667 C375,149.553 366.39,160 355.769,160 L144.231,160 C133.61,160 125,149.553 125,136.667 L125,43.333 C125,30.447 133.61,20 144.231,20 z" fill="#1B9DD3"/>
        <path d="M144.231,20 L355.769,20 C366.39,20 375,30.447 375,43.333 L375,136.667 C375,149.553 366.39,160 355.769,160 L144.231,160 C133.61,160 125,149.553 125,136.667 L125,43.333 C125,30.447 133.61,20 144.231,20 z" fill-opacity="0" stroke="#777777" stroke-width="6"/>
      </g>
    </g>
    <path d="M164.288,390.609 L164.288,390.609" fill-opacity="0" stroke="#777777" stroke-width="2"/>
    <path d="M132.5,168.5 L132.5,168.5" fill-opacity="0" stroke="#777777" stroke-width="2"/>
    <path d="M144.5,300.5 L144.5,300.5" fill-opacity="0" stroke="#777777" stroke-width="2"/>
    <path d="M396.5,174.5 L396.5,174.5" fill-opacity="0" stroke="#777777" stroke-width="2"/>
    <g>
      <path d="M144.231,340 L355.769,340 C366.39,340 375,350.447 375,363.333 L375,456.667 C375,469.553 366.39,480 355.769,480 L144.231,480 C133.61,480 125,469.553 125,456.667 L125,363.333 C125,350.447 133.61,340 144.231,340 z" fill="#1B9DD3"/>
      <g>
        <path d="M144.231,340 L355.769,340 C366.39,340 375,350.447 375,363.333 L375,456.667 C375,469.553 366.39,480 355.769,480 L144.231,480 C133.61,480 125,469.553 125,456.667 L125,363.333 C125,350.447 133.61,340 144.231,340 z" fill="#1B9DD3"/>
        <path d="M144.231,340 L355.769,340 C366.39,340 375,350.447 375,363.333 L375,456.667 C375,469.553 366.39,480 355.769,480 L144.231,480 C133.61,480 125,469.553 125,456.667 L125,363.333 C125,350.447 133.61,340 144.231,340 z" fill-opacity="0" stroke="#777777" stroke-width="6"/>
      </g>
    </g>
    <g>
      <path d="M250.294,221.199 L250.706,278.801" fill-opacity="0" stroke="#83D248" stroke-width="15"/>
      <path d="M261.694,221.118 L250.077,190.8 L238.895,221.28 z" fill="#83D248" fill-opacity="1" stroke="#83D248" stroke-width="15" stroke-opacity="1"/>
      <path d="M239.306,278.882 L250.923,309.2 L262.105,278.72 z" fill="#83D248" fill-opacity="1" stroke="#83D248" stroke-width="15" stroke-opacity="1"/>
    </g>
  </g>
</svg>
