<?xml version="1.0" encoding="UTF-8"?>
<!DOCTYPE svg PUBLIC "-//W3C//DTD SVG 1.1//EN" "http://www.w3.org/Graphics/SVG/1.1/DTD/svg11.dtd">
<svg version="1.1" xmlns="http://www.w3.org/2000/svg" xmlns:xlink="http://www.w3.org/1999/xlink" x="0" y="0" width="500" height="500" viewBox="0, 0, 500, 500">
  <g id="Layer_1">
    <path d="M276.5,242.5 C190.344,242.5 120.5,193.251 120.5,132.5" fill-opacity="0" stroke="#777777" stroke-width="6"/>
    <g>
      <path d="M259.731,180 L471.269,180 C481.89,180 490.5,190.447 490.5,203.333 L490.5,296.667 C490.5,309.553 481.89,320 471.269,320 L259.731,320 C249.11,320 240.5,309.553 240.5,296.667 L240.5,203.333 C240.5,190.447 249.11,180 259.731,180 z" fill="#1F9FD1"/>
      <g>
        <path d="M259.731,180 L471.269,180 C481.89,180 490.5,190.447 490.5,203.333 L490.5,296.667 C490.5,309.553 481.89,320 471.269,320 L259.731,320 C249.11,320 240.5,309.553 240.5,296.667 L240.5,203.333 C240.5,190.447 249.11,180 259.731,180 z" fill="#1F9FD1"/>
        <path d="M259.731,180 L471.269,180 C481.89,180 490.5,190.447 490.5,203.333 L490.5,296.667 C490.5,309.553 481.89,320 471.269,320 L259.731,320 C249.11,320 240.5,309.553 240.5,296.667 L240.5,203.333 C240.5,190.447 249.11,180 259.731,180 z" fill-opacity="0" stroke="#777777" stroke-width="6"/>
      </g>
    </g>
    <path d="M164.288,390.609 L164.288,390.609" fill-opacity="0" stroke="#777777" stroke-width="2"/>
    <path d="M327.5,432.5 C213.177,432.5 120.5,303.558 120.5,144.5" fill-opacity="0" stroke="#777777" stroke-width="6"/>
    <g>
      <path d="M33.333,12.5 L241.667,12.5 C253.173,12.5 262.5,23.693 262.5,37.5 L262.5,137.5 C262.5,151.307 253.173,162.5 241.667,162.5 L33.333,162.5 C21.827,162.5 12.5,151.307 12.5,137.5 L12.5,37.5 C12.5,23.693 21.827,12.5 33.333,12.5 z" fill="#E0E0E0"/>
      <path d="M33.333,12.5 L241.667,12.5 C253.173,12.5 262.5,23.693 262.5,37.5 L262.5,137.5 C262.5,151.307 253.173,162.5 241.667,162.5 L33.333,162.5 C21.827,162.5 12.5,151.307 12.5,137.5 L12.5,37.5 C12.5,23.693 21.827,12.5 33.333,12.5 z" fill-opacity="0" stroke="#777777" stroke-width="6"/>
    </g>
    <path d="M132.5,168.5 L132.5,168.5" fill-opacity="0" stroke="#777777" stroke-width="2"/>
    <path d="M144.5,300.5 L144.5,300.5" fill-opacity="0" stroke="#777777" stroke-width="2"/>
    <path d="M396.5,174.5 L396.5,174.5" fill-opacity="0" stroke="#777777" stroke-width="2"/>
    <g>
      <path d="M259.731,340.5 L471.269,340.5 C481.89,340.5 490.5,350.947 490.5,363.833 L490.5,457.167 C490.5,470.053 481.89,480.5 471.269,480.5 L259.731,480.5 C249.11,480.5 240.5,470.053 240.5,457.167 L240.5,363.833 C240.5,350.947 249.11,340.5 259.731,340.5 z" fill="#E0E0E0"/>
      <path d="M259.731,340.5 L471.269,340.5 C481.89,340.5 490.5,350.947 490.5,363.833 L490.5,457.167 C490.5,470.053 481.89,480.5 471.269,480.5 L259.731,480.5 C249.11,480.5 240.5,470.053 240.5,457.167 L240.5,363.833 C240.5,350.947 249.11,340.5 259.731,340.5 z" fill-opacity="0" stroke="#777777" stroke-width="6"/>
    </g>
    <g>
      <path d="M259.731,180 L471.269,180 C481.89,180 490.5,190.447 490.5,203.333 L490.5,296.667 C490.5,309.553 481.89,320 471.269,320 L259.731,320 C249.11,320 240.5,309.553 240.5,296.667 L240.5,203.333 C240.5,190.447 249.11,180 259.731,180 z" fill-opacity="0" stroke="#1F9FD1" stroke-width="1" stroke-dasharray="3,2"/>
      <path d="M259.731,180 L471.269,180 C481.89,180 490.5,190.447 490.5,203.333 L490.5,296.667 C490.5,309.553 481.89,320 471.269,320 L259.731,320 C249.11,320 240.5,309.553 240.5,296.667 L240.5,203.333 C240.5,190.447 249.11,180 259.731,180 z" fill-opacity="0" stroke="#1F9FD1" stroke-width="6" stroke-dasharray="18,12"/>
    </g>
    <g>
      <path d="M440,425.609 C420.67,425.609 405,409.939 405,390.609 C405,371.279 420.67,355.609 440,355.609 C459.33,355.609 475,371.279 475,390.609 C475,409.939 459.33,425.609 440,425.609 z" fill="#1F9FD1"/>
      <path d="M440,425.609 C420.67,425.609 405,409.939 405,390.609 C405,371.279 420.67,355.609 440,355.609 C459.33,355.609 475,371.279 475,390.609 C475,409.939 459.33,425.609 440,425.609 z" fill-opacity="0" stroke="#000000" stroke-width="6"/>
    </g>
    <path d="M436.08,407.409 C433.622,403.366 430.637,399.407 425.72,397.469" fill-opacity="0" stroke="#000000" stroke-width="6" stroke-linecap="round"/>
    <path d="M453.72,375.769 C442.397,385.641 438.941,396.905 436.08,407.409" fill-opacity="0" stroke="#000000" stroke-width="6" stroke-linecap="round"/>
    <g>
      <path d="M440,265 C420.67,265 405,249.33 405,230 C405,210.67 420.67,195 440,195 C459.33,195 475,210.67 475,230 C475,249.33 459.33,265 440,265 z" fill="#E0E0E0"/>
      <g>
        <path d="M440,265 C420.67,265 405,249.33 405,230 C405,210.67 420.67,195 440,195 C459.33,195 475,210.67 475,230 C475,249.33 459.33,265 440,265 z" fill="#E0E0E0"/>
        <path d="M440,265 C420.67,265 405,249.33 405,230 C405,210.67 420.67,195 440,195 C459.33,195 475,210.67 475,230 C475,249.33 459.33,265 440,265 z" fill-opacity="0" stroke="#000000" stroke-width="6"/>
      </g>
    </g>
    <g>
      <path d="M436.08,246.8 C433.622,242.757 430.637,238.798 425.72,236.86" fill="#E0E0E0"/>
      <path d="M436.08,246.8 C433.622,242.757 430.637,238.798 425.72,236.86" fill-opacity="0" stroke="#000000" stroke-width="6" stroke-linecap="round"/>
    </g>
    <g>
      <path d="M453.72,215.16 C442.397,225.032 438.941,236.296 436.08,246.8" fill="#E0E0E0"/>
      <path d="M453.72,215.16 C442.397,225.032 438.941,236.296 436.08,246.8" fill-opacity="0" stroke="#000000" stroke-width="6" stroke-linecap="round"/>
    </g>
  </g>
</svg>
