<?xml version="1.0" encoding="UTF-8"?>
<!DOCTYPE svg PUBLIC "-//W3C//DTD SVG 1.1//EN" "http://www.w3.org/Graphics/SVG/1.1/DTD/svg11.dtd">
<svg version="1.1" xmlns="http://www.w3.org/2000/svg" xmlns:xlink="http://www.w3.org/1999/xlink" x="0" y="0" width="500" height="500" viewBox="0, 0, 500, 500">
  <g id="Layer_1">
    <g>
      <path d="M310.389,50.5 L52.611,50.5 C43.713,50.5 36.5,55.34 36.5,61.311 L36.5,439.689 C36.5,445.66 43.713,450.5 52.611,450.5 L310.389,450.5 C319.287,450.5 326.5,445.66 326.5,439.689 L326.5,61.311 C326.5,55.34 319.287,50.5 310.389,50.5 z" fill="#0FA9E2"/>
      <path d="M310.389,50.5 L52.611,50.5 C43.713,50.5 36.5,55.34 36.5,61.311 L36.5,439.689 C36.5,445.66 43.713,450.5 52.611,450.5 L310.389,450.5 C319.287,450.5 326.5,445.66 326.5,439.689 L326.5,61.311 C326.5,55.34 319.287,50.5 310.389,50.5 z" fill-opacity="0" stroke="#525245" stroke-width="10"/>
    </g>
    <g>
      <path d="M417.034,352.5 L476.5,244.5 L417.034,148.5 L415.966,194 L356.5,194 L357.567,304.5 L417.034,304.5 z" fill="#0FA9E2"/>
      <path d="M417.034,352.5 L476.5,244.5 L417.034,148.5 L415.966,194 L356.5,194 L357.567,304.5 L417.034,304.5 z" fill-opacity="0" stroke="#525245" stroke-width="10" stroke-linejoin="round"/>
    </g>
    <g>
      <path d="M276.5,84.5 L206.5,84.5 L206.5,214.5 L276.5,214.5 z" fill="#0FA9E2"/>
      <path d="M276.5,84.5 L206.5,84.5 L206.5,214.5 L276.5,214.5 z" fill-opacity="0" stroke="#525245" stroke-width="10"/>
    </g>
    <g>
      <path d="M276.5,280.5 L206.5,280.5 L206.5,420.5 L276.5,420.5 z" fill="#0FA9E2"/>
      <path d="M276.5,280.5 L206.5,280.5 L206.5,420.5 L276.5,420.5 z" fill-opacity="0" stroke="#525245" stroke-width="10"/>
    </g>
    <g>
      <path d="M156.5,84.5 L86.5,84.5 L86.5,214.5 L156.5,214.5 z" fill="#0FA9E2"/>
      <path d="M156.5,84.5 L86.5,84.5 L86.5,214.5 L156.5,214.5 z" fill-opacity="0" stroke="#525245" stroke-width="10"/>
    </g>
    <g>
      <path d="M156.5,280.5 L86.5,280.5 L86.5,420.5 L156.5,420.5 z" fill="#0FA9E2"/>
      <path d="M156.5,280.5 L86.5,280.5 L86.5,420.5 L156.5,420.5 z" fill-opacity="0" stroke="#525245" stroke-width="10"/>
    </g>
    <g>
      <path d="M71.5,265.5 C79.784,265.5 86.5,258.784 86.5,250.5 C86.5,242.216 79.784,235.5 71.5,235.5 C63.216,235.5 56.5,242.216 56.5,250.5 C56.5,258.784 63.216,265.5 71.5,265.5 z" fill="#0FA9E2"/>
      <path d="M71.5,265.5 C79.784,265.5 86.5,258.784 86.5,250.5 C86.5,242.216 79.784,235.5 71.5,235.5 C63.216,235.5 56.5,242.216 56.5,250.5 C56.5,258.784 63.216,265.5 71.5,265.5 z" fill-opacity="0" stroke="#525245" stroke-width="10"/>
    </g>
  </g>
</svg>
