<?xml version="1.0" encoding="UTF-8"?>
<!DOCTYPE svg PUBLIC "-//W3C//DTD SVG 1.1//EN" "http://www.w3.org/Graphics/SVG/1.1/DTD/svg11.dtd">
<svg version="1.1" xmlns="http://www.w3.org/2000/svg" xmlns:xlink="http://www.w3.org/1999/xlink" x="0" y="0" width="500" height="500" viewBox="0, 0, 500, 500">
  <g id="Layer_1">
    <g>
      <path d="M391.921,391.921 C313.816,470.026 187.184,470.026 109.079,391.921 C30.974,313.816 30.974,187.184 109.079,109.079 C187.183,30.974 313.816,30.974 391.921,109.079 C470.026,187.184 470.026,313.817 391.921,391.921 z" fill="#0FA9E2"/>
      <path d="M391.921,391.921 C313.816,470.026 187.184,470.026 109.079,391.921 C30.974,313.816 30.974,187.184 109.079,109.079 C187.183,30.974 313.816,30.974 391.921,109.079 C470.026,187.184 470.026,313.817 391.921,391.921 z" fill-opacity="0" stroke="#525245" stroke-width="20"/>
    </g>
    <path d="M176.961,292.926 L346.667,123.221 L380.608,157.162 L210.902,326.868 z" fill-opacity="0" stroke="#0FA9E2" stroke-width="50"/>
    <g>
      <path d="M176.254,289.391 L345.959,119.685 L382.729,156.455 L213.023,326.16 z" fill="#525245"/>
      <path d="M176.254,289.391 L345.959,119.685 L382.729,156.455 L213.023,326.16 z" fill-opacity="0" stroke="#525245" stroke-width="10"/>
    </g>
    <g>
      <path d="M134.534,369.294 L164.573,305.315 L198.514,339.256 z" fill="#0FA9E2"/>
      <path d="M134.534,369.294 L164.573,305.315 L198.514,339.256 z" fill-opacity="0" stroke="#525245" stroke-width="10"/>
    </g>
  </g>
</svg>
