<?xml version="1.0" encoding="UTF-8"?>
<!DOCTYPE svg PUBLIC "-//W3C//DTD SVG 1.1//EN" "http://www.w3.org/Graphics/SVG/1.1/DTD/svg11.dtd">
<svg version="1.1" xmlns="http://www.w3.org/2000/svg" xmlns:xlink="http://www.w3.org/1999/xlink" x="0" y="0" width="500" height="500" viewBox="0, 0, 500, 500">
  <g id="Layer_1">
    <path d="M164.288,390.609 L164.288,390.609" fill-opacity="0" stroke="#777777" stroke-width="2"/>
    <path d="M327.5,432.5 C213.177,432.5 120.5,303.558 120.5,144.5" fill-opacity="0" stroke="#777777" stroke-width="6"/>
    <g>
      <path d="M33.333,12.5 L241.667,12.5 C253.173,12.5 262.5,22.947 262.5,35.833 L262.5,129.167 C262.5,142.053 253.173,152.5 241.667,152.5 L33.333,152.5 C21.827,152.5 12.5,142.053 12.5,129.167 L12.5,35.833 C12.5,22.947 21.827,12.5 33.333,12.5 z" fill="#E0E0E0"/>
      <path d="M33.333,12.5 L241.667,12.5 C253.173,12.5 262.5,22.947 262.5,35.833 L262.5,129.167 C262.5,142.053 253.173,152.5 241.667,152.5 L33.333,152.5 C21.827,152.5 12.5,142.053 12.5,129.167 L12.5,35.833 C12.5,22.947 21.827,12.5 33.333,12.5 z" fill-opacity="0" stroke="#777777" stroke-width="6"/>
    </g>
    <path d="M132.5,168.5 L132.5,168.5" fill-opacity="0" stroke="#777777" stroke-width="2"/>
    <path d="M144.5,300.5 L144.5,300.5" fill-opacity="0" stroke="#777777" stroke-width="2"/>
    <path d="M396.5,174.5 L396.5,174.5" fill-opacity="0" stroke="#777777" stroke-width="2"/>
    <g>
      <path d="M259.731,340.5 L471.269,340.5 C481.89,340.5 490.5,350.947 490.5,363.833 L490.5,457.167 C490.5,470.053 481.89,480.5 471.269,480.5 L259.731,480.5 C249.11,480.5 240.5,470.053 240.5,457.167 L240.5,363.833 C240.5,350.947 249.11,340.5 259.731,340.5 z" fill="#20A0D3"/>
      <path d="M259.731,340.5 L471.269,340.5 C481.89,340.5 490.5,350.947 490.5,363.833 L490.5,457.167 C490.5,470.053 481.89,480.5 471.269,480.5 L259.731,480.5 C249.11,480.5 240.5,470.053 240.5,457.167 L240.5,363.833 C240.5,350.947 249.11,340.5 259.731,340.5 z" fill-opacity="0" stroke="#777777" stroke-width="6"/>
    </g>
    <g>
      <path d="M132.5,144.5 C99.363,144.5 72.5,117.637 72.5,84.5 C72.5,51.363 99.363,24.5 132.5,24.5 C165.637,24.5 192.5,51.363 192.5,84.5 C192.5,117.637 165.637,144.5 132.5,144.5 z" fill="#1F9FD1" fill-opacity="0.825"/>
      <path d="M132.5,144.5 C99.363,144.5 72.5,117.637 72.5,84.5 C72.5,51.363 99.363,24.5 132.5,24.5 C165.637,24.5 192.5,51.363 192.5,84.5 C192.5,117.637 165.637,144.5 132.5,144.5 z" fill-opacity="0" stroke="#000000" stroke-width="6" stroke-opacity="0.439"/>
    </g>
    <path d="M132.5,54.5 L132.5,114.5" fill-opacity="0" stroke="#000000" stroke-width="20" stroke-linecap="round"/>
    <path d="M102.5,84.5 L162.5,84.5" fill-opacity="0" stroke="#000000" stroke-width="20" stroke-linecap="round"/>
    <path d="M256.125,340.5 L474.875,340.5 C483.504,340.5 490.5,349.454 490.5,360.5 L490.5,460.5 C490.5,471.546 483.504,480.5 474.875,480.5 L256.125,480.5 C247.496,480.5 240.5,471.546 240.5,460.5 L240.5,360.5 C240.5,349.454 247.496,340.5 256.125,340.5 z" fill-opacity="0" stroke="#D8D8D8" stroke-width="6" stroke-dasharray="18,12"/>
  </g>
</svg>
