<?xml version="1.0" encoding="UTF-8"?>
<!DOCTYPE svg PUBLIC "-//W3C//DTD SVG 1.1//EN" "http://www.w3.org/Graphics/SVG/1.1/DTD/svg11.dtd">
<svg version="1.1" xmlns="http://www.w3.org/2000/svg" xmlns:xlink="http://www.w3.org/1999/xlink" x="0" y="0" width="500" height="500" viewBox="0, 0, 500, 500">
  <g id="Layer_1">
    <path d="M164.288,390.609 L164.288,390.609" fill-opacity="0" stroke="#777777" stroke-width="2"/>
    <path d="M132.5,168.5 L132.5,168.5" fill-opacity="0" stroke="#777777" stroke-width="2"/>
    <path d="M144.5,300.5 L144.5,300.5" fill-opacity="0" stroke="#777777" stroke-width="2"/>
    <path d="M396.5,174.5 L396.5,174.5" fill-opacity="0" stroke="#777777" stroke-width="2"/>
    <g>
      <path d="M250,450 C139.542,450 50,360.458 50,250 C50,139.542 139.542,50 250,50 C360.458,50 450,139.542 450,250 C450,360.458 360.458,450 250,450 z" fill="#1F9FD1"/>
      <path d="M250,450 C139.542,450 50,360.458 50,250 C50,139.542 139.542,50 250,50 C360.458,50 450,139.542 450,250 C450,360.458 360.458,450 250,450 z" fill-opacity="0" stroke="#000000" stroke-width="20"/>
    </g>
    <g>
      <path d="M250,270 C238.954,270 230,261.046 230,250 C230,238.954 238.954,230 250,230 C261.046,230 270,238.954 270,250 C270,261.046 261.046,270 250,270 z" fill="#000000"/>
      <path d="M250,270 C238.954,270 230,261.046 230,250 C230,238.954 238.954,230 250,230 C261.046,230 270,238.954 270,250 C270,261.046 261.046,270 250,270 z" fill-opacity="0" stroke="#000000" stroke-width="10"/>
    </g>
    <g>
      <path d="M410,250 L353.198,250.516" fill-opacity="0" stroke="#000000" stroke-width="20" stroke-linecap="square"/>
      <path d="M353.067,236.117 L314.799,250.865 L353.329,264.916 z" fill-opacity="0" stroke="#000000" stroke-width="20" stroke-opacity="1"/>
    </g>
    <g>
      <path d="M90,250 L146.802,250.516" fill-opacity="0" stroke="#000000" stroke-width="20" stroke-linecap="square"/>
      <path d="M146.671,264.916 L185.201,250.865 L146.933,236.117 z" fill-opacity="0" stroke="#000000" stroke-width="20" stroke-opacity="1"/>
    </g>
    <g>
      <path d="M251,90 L250.484,146.802" fill-opacity="0" stroke="#000000" stroke-width="20" stroke-linecap="square"/>
      <path d="M236.084,146.671 L250.135,185.201 L264.883,146.933 z" fill-opacity="0" stroke="#000000" stroke-width="20" stroke-opacity="1"/>
    </g>
    <g>
      <path d="M251,410 L250.484,353.198" fill-opacity="0" stroke="#000000" stroke-width="20" stroke-linecap="square"/>
      <path d="M264.883,353.067 L250.135,314.799 L236.084,353.329 z" fill-opacity="0" stroke="#000000" stroke-width="20" stroke-opacity="1"/>
    </g>
  </g>
</svg>
