<?xml version="1.0" encoding="UTF-8"?>
<!DOCTYPE svg PUBLIC "-//W3C//DTD SVG 1.1//EN" "http://www.w3.org/Graphics/SVG/1.1/DTD/svg11.dtd">
<svg version="1.1" xmlns="http://www.w3.org/2000/svg" xmlns:xlink="http://www.w3.org/1999/xlink" x="0" y="0" width="500" height="500" viewBox="0, 0, 500, 500">
  <g id="horizontal_outline">
    <g>
      <path d="M289.766,168.932 C325.627,168.932 356.699,188.43 373.86,217.164 L474.943,217.278 L474.943,163.002 C474.943,142.877 458.58,126.514 438.398,126.514 L61.488,126.514 C41.363,126.514 25.057,142.877 25.057,163.002 L25.171,216.822 L205.673,216.936 C222.948,188.316 253.905,168.932 289.766,168.932" fill="#1EA8E2"/>
      <path d="M119.584,109.296 L86.06,109.296 L82.184,121.383 L122.377,121.383 z" fill="#1EA8E2"/>
      <path d="M421.921,102.854 L377.28,102.854 L369.356,121.497 L429.162,121.497 z" fill="#1EA8E2"/>
      <path d="M303.905,89 L195.467,89 L173.119,121.725 L324.43,121.725 L303.905,89 z M268.672,115.055 L230.188,115.055 L230.188,96.469 L268.672,96.469 L268.672,115.055 z" fill="#1EA8E2"/>
      <path d="M379.048,226.856 C384.635,239.171 387.942,252.74 387.942,267.164 C387.942,321.383 343.985,365.397 289.709,365.397 C235.433,365.397 191.477,321.44 191.477,267.164 C191.477,252.74 194.726,239.171 200.371,226.799 L25,226.799 L25,374.804 C25,394.929 41.249,411.292 61.431,411.292 L438.341,411.292 C458.523,411.292 474.886,394.929 474.886,374.804 L475,226.856 L379.048,226.856 z" fill="#1EA8E2"/>
      <path d="M343.301,234.895 C341.762,232.158 339.823,229.593 337.714,227.141 C326.254,213.344 309.093,204.336 289.709,204.336 C270.325,204.336 253.164,213.287 241.705,227.027 C239.595,229.536 237.714,232.101 236.003,234.895 C230.188,244.359 226.767,255.306 226.767,267.164 C226.767,301.828 254.932,329.992 289.709,329.992 C324.316,329.992 352.537,301.885 352.537,267.164 C352.537,255.306 349.116,244.359 343.301,234.895" fill="#1EA8E2"/>
    </g>
  </g>
</svg>
