<?xml version="1.0" encoding="UTF-8"?>
<!DOCTYPE svg PUBLIC "-//W3C//DTD SVG 1.1//EN" "http://www.w3.org/Graphics/SVG/1.1/DTD/svg11.dtd">
<svg version="1.1" xmlns="http://www.w3.org/2000/svg" xmlns:xlink="http://www.w3.org/1999/xlink" x="0" y="0" width="500" height="500" viewBox="0, 0, 500, 500">
  <g id="Layer_1">
    <path d="M164.288,390.609 L164.288,390.609" fill-opacity="0" stroke="#777777" stroke-width="2"/>
    <path d="M327.5,432.5 C213.177,432.5 120.5,303.558 120.5,144.5" fill-opacity="0" stroke="#777777" stroke-width="6"/>
    <path d="M276.5,242.5 C190.344,242.5 120.5,193.251 120.5,132.5" fill-opacity="0" stroke="#777777" stroke-width="6"/>
    <g>
      <path d="M33.333,12.5 L241.667,12.5 C253.173,12.5 262.5,23.693 262.5,37.5 L262.5,137.5 C262.5,151.307 253.173,162.5 241.667,162.5 L33.333,162.5 C21.827,162.5 12.5,151.307 12.5,137.5 L12.5,37.5 C12.5,23.693 21.827,12.5 33.333,12.5 z" fill="#E0E0E0"/>
      <path d="M33.333,12.5 L241.667,12.5 C253.173,12.5 262.5,23.693 262.5,37.5 L262.5,137.5 C262.5,151.307 253.173,162.5 241.667,162.5 L33.333,162.5 C21.827,162.5 12.5,151.307 12.5,137.5 L12.5,37.5 C12.5,23.693 21.827,12.5 33.333,12.5 z" fill-opacity="0" stroke="#777777" stroke-width="6"/>
    </g>
    <g>
      <path d="M259.731,180.5 L471.269,180.5 C481.89,180.5 490.5,190.947 490.5,203.833 L490.5,297.167 C490.5,310.053 481.89,320.5 471.269,320.5 L259.731,320.5 C249.11,320.5 240.5,310.053 240.5,297.167 L240.5,203.833 C240.5,190.947 249.11,180.5 259.731,180.5 z" fill="#E0E0E0"/>
      <path d="M259.731,180.5 L471.269,180.5 C481.89,180.5 490.5,190.947 490.5,203.833 L490.5,297.167 C490.5,310.053 481.89,320.5 471.269,320.5 L259.731,320.5 C249.11,320.5 240.5,310.053 240.5,297.167 L240.5,203.833 C240.5,190.947 249.11,180.5 259.731,180.5 z" fill-opacity="0" stroke="#777777" stroke-width="6"/>
    </g>
    <path d="M132.5,168.5 L132.5,168.5" fill-opacity="0" stroke="#777777" stroke-width="2"/>
    <path d="M144.5,300.5 L144.5,300.5" fill-opacity="0" stroke="#777777" stroke-width="2"/>
    <path d="M396.5,174.5 L396.5,174.5" fill-opacity="0" stroke="#777777" stroke-width="2"/>
    <g>
      <path d="M259.731,340.5 L471.269,340.5 C481.89,340.5 490.5,350.947 490.5,363.833 L490.5,457.167 C490.5,470.053 481.89,480.5 471.269,480.5 L259.731,480.5 C249.11,480.5 240.5,470.053 240.5,457.167 L240.5,363.833 C240.5,350.947 249.11,340.5 259.731,340.5 z" fill="#E0E0E0"/>
      <path d="M259.731,340.5 L471.269,340.5 C481.89,340.5 490.5,350.947 490.5,363.833 L490.5,457.167 C490.5,470.053 481.89,480.5 471.269,480.5 L259.731,480.5 C249.11,480.5 240.5,470.053 240.5,457.167 L240.5,363.833 C240.5,350.947 249.11,340.5 259.731,340.5 z" fill-opacity="0" stroke="#777777" stroke-width="6"/>
    </g>
    <g>
      <path d="M250,275 C180.964,275 125,219.036 125,150 C125,80.964 180.964,25 250,25 C319.036,25 375,80.964 375,150 C375,219.036 319.036,275 250,275 z" fill="#1F9FD1"/>
      <path d="M250,275 C180.964,275 125,219.036 125,150 C125,80.964 180.964,25 250,25 C319.036,25 375,80.964 375,150 C375,219.036 319.036,275 250,275 z" fill-opacity="0" stroke="#000000" stroke-width="20"/>
    </g>
    <path d="M306.89,86.268 L226.443,167.066" fill-opacity="0" stroke="#000000" stroke-width="40"/>
    <g>
      <path d="M182.5,205 L202.538,160.103 L230.549,188.018 z" fill="#1F9FD1"/>
      <path d="M182.5,205 L202.538,160.103 L230.549,188.018 z" fill-opacity="0" stroke="#000000" stroke-width="4"/>
    </g>
  </g>
</svg>
