<?xml version="1.0" encoding="UTF-8"?>
<!DOCTYPE svg PUBLIC "-//W3C//DTD SVG 1.1//EN" "http://www.w3.org/Graphics/SVG/1.1/DTD/svg11.dtd">
<svg version="1.1" xmlns="http://www.w3.org/2000/svg" xmlns:xlink="http://www.w3.org/1999/xlink" x="0" y="0" width="500" height="500" viewBox="0, 0, 500, 500">
  <g id="Layer_1">
    <path d="M143.288,449.609 L143.288,449.609" fill-opacity="0" stroke="#777777" stroke-width="2"/>
    <path d="M328.086,262.944 L328.086,262.944" fill-opacity="0" stroke="#777777" stroke-width="2"/>
    <path d="M131.3,414.5 L131.3,414.5" fill-opacity="0" stroke="#777777" stroke-width="2"/>
    <path d="M463.5,233.5 L463.5,233.5" fill-opacity="0" stroke="#777777" stroke-width="2"/>
    <g>
      <path d="M250.5,289.389 C181.941,289.389 126.362,233.673 126.362,164.944 C126.362,96.216 181.941,40.5 250.5,40.5 C319.059,40.5 374.638,96.216 374.638,164.944 C374.638,233.673 319.059,289.389 250.5,289.389 z" fill="#00FF00"/>
      <path d="M250.5,289.389 C181.941,289.389 126.362,233.673 126.362,164.944 C126.362,96.216 181.941,40.5 250.5,40.5 C319.059,40.5 374.638,96.216 374.638,164.944 C374.638,233.673 319.059,289.389 250.5,289.389 z" fill-opacity="0" stroke="#777777" stroke-width="6"/>
    </g>
    <g>
      <path d="M149.638,460.5 C81.078,460.5 25.5,404.784 25.5,336.056 C25.5,267.327 81.078,211.611 149.638,211.611 C218.197,211.611 273.776,267.327 273.776,336.056 C273.776,404.784 218.197,460.5 149.638,460.5 z" fill="#0000FF"/>
      <path d="M149.638,460.5 C81.078,460.5 25.5,404.784 25.5,336.056 C25.5,267.327 81.078,211.611 149.638,211.611 C218.197,211.611 273.776,267.327 273.776,336.056 C273.776,404.784 218.197,460.5 149.638,460.5 z" fill-opacity="0" stroke="#777777" stroke-width="6"/>
    </g>
    <g>
      <path d="M351.362,460.5 C282.803,460.5 227.224,404.784 227.224,336.056 C227.224,267.327 282.803,211.611 351.362,211.611 C419.922,211.611 475.5,267.327 475.5,336.056 C475.5,404.784 419.922,460.5 351.362,460.5 z" fill="#FF0000"/>
      <path d="M351.362,460.5 C282.803,460.5 227.224,404.784 227.224,336.056 C227.224,267.327 282.803,211.611 351.362,211.611 C419.922,211.611 475.5,267.327 475.5,336.056 C475.5,404.784 419.922,460.5 351.362,460.5 z" fill-opacity="0" stroke="#777777" stroke-width="6"/>
    </g>
    <g>
      <path d="M147.845,211.611 C197.994,211.787 242.979,242.361 262.432,288.482 C252.976,289.442 257.553,289.165 248.707,289.389 C198.558,289.214 153.574,258.639 134.121,212.519 C143.576,211.558 139,211.835 147.845,211.611 z" fill="#00FFFF"/>
      <path d="M147.845,211.611 C197.994,211.787 242.979,242.361 262.432,288.482 C252.976,289.442 257.553,289.165 248.707,289.389 C198.558,289.214 153.574,258.639 134.121,212.519 C143.576,211.558 139,211.835 147.845,211.611 z" fill-opacity="0" stroke="#777777" stroke-width="6"/>
    </g>
    <g>
      <path d="M349.569,211.611 C358.415,211.835 353.838,211.558 363.294,212.519 C343.845,259.978 299.2,288.11 248.707,289.389 C239.862,289.165 244.438,289.442 234.983,288.482 C254.432,241.021 299.077,212.891 349.569,211.611 z" fill="#FFFF00"/>
      <path d="M349.569,211.611 C358.415,211.835 353.838,211.558 363.294,212.519 C343.845,259.978 299.2,288.11 248.707,289.389 C239.862,289.165 244.438,289.442 234.983,288.482 C254.432,241.021 299.077,212.891 349.569,211.611 z" fill-opacity="0" stroke="#777777" stroke-width="6"/>
    </g>
    <g>
      <path d="M250.5,263.655 C266.012,284.823 273.119,310.03 273.776,336.056 C273.751,363.304 265.562,386.103 250.5,408.456 C234.988,387.288 227.88,362.081 227.224,336.056 C227.249,308.808 235.437,286.008 250.5,263.655 z" fill="#FF00FF"/>
      <path d="M250.5,263.655 C266.012,284.823 273.119,310.03 273.776,336.056 C273.751,363.304 265.562,386.103 250.5,408.456 C234.988,387.288 227.88,362.081 227.224,336.056 C227.249,308.808 235.437,286.008 250.5,263.655 z" fill-opacity="0" stroke="#777777" stroke-width="6"/>
    </g>
    <g>
      <path d="M249.983,262.82 C255.273,269.928 259.276,277.881 262.858,285.956 C258.344,286.695 253.751,286.795 249.189,286.989 L249.188,286.989 L243.761,286.825 L241.016,286.608 L237.321,286.273 C240.541,277.953 245.202,270.312 249.983,262.82 z" fill="#FFFFFF"/>
      <path d="M249.983,262.82 C255.273,269.928 259.276,277.881 262.858,285.956 C258.344,286.695 253.751,286.795 249.189,286.989 L249.188,286.989 L243.761,286.825 L241.016,286.608 L237.321,286.273 C240.541,277.953 245.202,270.312 249.983,262.82 z" fill-opacity="0" stroke="#777777" stroke-width="6"/>
    </g>
  </g>
</svg>
