<?xml version="1.0" encoding="UTF-8"?>
<!DOCTYPE svg PUBLIC "-//W3C//DTD SVG 1.1//EN" "http://www.w3.org/Graphics/SVG/1.1/DTD/svg11.dtd">
<svg version="1.1" xmlns="http://www.w3.org/2000/svg" xmlns:xlink="http://www.w3.org/1999/xlink" x="0" y="0" width="500" height="500" viewBox="0, 0, 500, 500">
  <g id="Layer_1">
    <path d="M164.288,390.609 L164.288,390.609" fill-opacity="0" stroke="#777777" stroke-width="2"/>
    <path d="M132.5,168.5 L132.5,168.5" fill-opacity="0" stroke="#777777" stroke-width="2"/>
    <path d="M144.5,300.5 L144.5,300.5" fill-opacity="0" stroke="#777777" stroke-width="2"/>
    <path d="M396.5,174.5 L396.5,174.5" fill-opacity="0" stroke="#777777" stroke-width="2"/>
    <g>
      <path d="M250,450 C139.542,450 50,360.458 50,250 C50,139.542 139.542,50 250,50 C360.458,50 450,139.542 450,250 C450,360.458 360.458,450 250,450 z" fill="#FF0800"/>
      <g>
        <path d="M250,450 C139.542,450 50,360.458 50,250 C50,139.542 139.542,50 250,50 C360.458,50 450,139.542 450,250 C450,360.458 360.458,450 250,450 z" fill="#FF0800"/>
        <path d="M250,450 C139.542,450 50,360.458 50,250 C50,139.542 139.542,50 250,50 C360.458,50 450,139.542 450,250 C450,360.458 360.458,450 250,450 z" fill-opacity="0" stroke="#000000" stroke-width="20"/>
      </g>
    </g>
    <path d="M150,250 L350,250" fill-opacity="0" stroke="#000000" stroke-width="50" stroke-linecap="round"/>
  </g>
</svg>
