<?xml version="1.0" encoding="UTF-8"?>
<!DOCTYPE svg PUBLIC "-//W3C//DTD SVG 1.1//EN" "http://www.w3.org/Graphics/SVG/1.1/DTD/svg11.dtd">
<svg version="1.1" xmlns="http://www.w3.org/2000/svg" xmlns:xlink="http://www.w3.org/1999/xlink" x="0" y="0" width="500" height="500" viewBox="0, 0, 500, 500">
  <g id="Layer_1">
    <path d="M164.288,390.609 L164.288,390.609" fill-opacity="0" stroke="#777777" stroke-width="2"/>
    <path d="M137.5,169.5 L137.5,169.5" fill-opacity="0" stroke="#777777" stroke-width="2"/>
    <path d="M144.5,300.5 L144.5,300.5" fill-opacity="0" stroke="#777777" stroke-width="2"/>
    <path d="M321.5,175.5 L321.5,175.5" fill-opacity="0" stroke="#777777" stroke-width="2"/>
    <g>
      <path d="M250.5,275.5 C181.464,275.5 125.5,219.536 125.5,150.5 C125.5,81.464 181.464,25.5 250.5,25.5 C319.536,25.5 375.5,81.464 375.5,150.5 C375.5,219.536 319.536,275.5 250.5,275.5 z" fill="#1F9FD1"/>
      <path d="M250.5,275.5 C181.464,275.5 125.5,219.536 125.5,150.5 C125.5,81.464 181.464,25.5 250.5,25.5 C319.536,25.5 375.5,81.464 375.5,150.5 C375.5,219.536 319.536,275.5 250.5,275.5 z" fill-opacity="0" stroke="#000000" stroke-width="20"/>
    </g>
    <path d="M307.39,86.768 L226.943,167.566" fill-opacity="0" stroke="#000000" stroke-width="40"/>
    <g>
      <path d="M185.5,205.5 L205.538,160.603 L233.549,188.518 z" fill="#1F9FD1"/>
      <path d="M185.5,205.5 L205.538,160.603 L233.549,188.518 z" fill-opacity="0" stroke="#000000" stroke-width="4"/>
    </g>
    <g>
      <path d="M62.323,320.5 L438.677,320.5 C445.207,320.5 450.5,324.977 450.5,330.5 L450.5,460.5 C450.5,466.023 445.207,470.5 438.677,470.5 L62.323,470.5 C55.793,470.5 50.5,466.023 50.5,460.5 L50.5,330.5 C50.5,324.977 55.793,320.5 62.323,320.5 z" fill="#E0E0E0"/>
      <path d="M62.323,320.5 L438.677,320.5 C445.207,320.5 450.5,324.977 450.5,330.5 L450.5,460.5 C450.5,466.023 445.207,470.5 438.677,470.5 L62.323,470.5 C55.793,470.5 50.5,466.023 50.5,460.5 L50.5,330.5 C50.5,324.977 55.793,320.5 62.323,320.5 z" fill-opacity="0" stroke="#777777" stroke-width="6"/>
    </g>
    <path d="M62.323,320.5 L438.677,320.5 C445.207,320.5 450.5,324.977 450.5,330.5 L450.5,460.5 C450.5,466.023 445.207,470.5 438.677,470.5 L62.323,470.5 C55.793,470.5 50.5,466.023 50.5,460.5 L50.5,330.5 C50.5,324.977 55.793,320.5 62.323,320.5 z" fill-opacity="0" stroke="#1F9FD1" stroke-width="6" stroke-dasharray="18,12"/>
  </g>
</svg>
