<?xml version="1.0" encoding="UTF-8"?>
<!DOCTYPE svg PUBLIC "-//W3C//DTD SVG 1.1//EN" "http://www.w3.org/Graphics/SVG/1.1/DTD/svg11.dtd">
<svg version="1.1" xmlns="http://www.w3.org/2000/svg" xmlns:xlink="http://www.w3.org/1999/xlink" x="0" y="0" width="123" height="123" viewBox="0, 0, 123, 123">
  <g id="Layer_1">
    <path d="M61.325,91.751 C77.351,91.35 90.802,81.392 91.75,64.741 L91.75,64.73 C91.087,47.837 77.114,38.43 61.32,37.722 C44.516,37.722 30.89,49.815 30.89,64.736 C31.552,81.629 45.52,91.043 61.316,91.751 L61.325,91.751 z" fill="#29ABE2"/>
    <path d="M91.75,64.736 C91.75,79.658 78.125,91.751 61.32,91.751 C44.516,91.751 30.89,79.658 30.89,64.736 C30.89,49.815 44.516,37.722 61.32,37.722 C78.125,37.722 91.75,49.815 91.75,64.736 z" fill-opacity="0" stroke="#000000" stroke-width="2"/>
    <path d="M55.335,59.865 C55.335,63.237 53.808,65.969 51.928,65.969 C50.045,65.969 48.519,63.237 48.519,59.865 C48.519,56.493 50.045,53.761 51.928,53.761 C53.808,53.761 55.335,56.493 55.335,59.865" fill="#000000"/>
    <path d="M55.335,59.865 C55.335,63.237 53.808,65.969 51.928,65.969 C50.045,65.969 48.519,63.237 48.519,59.865 C48.519,56.493 50.045,53.761 51.928,53.761 C53.808,53.761 55.335,56.493 55.335,59.865 z" fill-opacity="0" stroke="#000000" stroke-width="3"/>
    <path d="M48.287,74.518 C47.302,90.475 68.789,80.726 75.455,75.35 C77.544,73.665 74.332,73.095 72.992,73.957 C72.975,73.968 72.959,73.978 72.943,73.989 C70.736,75.409 74.034,76.265 75.406,75.382 C75.422,75.371 75.439,75.361 75.455,75.35 C74.634,74.886 73.813,74.422 72.992,73.957 C70.269,76.153 66.688,77.718 63.514,79.097 C57.796,81.582 51.676,82.119 52.171,74.11 C52.28,72.342 48.378,73.048 48.287,74.518" fill="#000000"/>
    <path d="M119.694,38.25 C119.694,43.26 115.776,47.322 110.944,47.322 C106.112,47.322 102.194,43.26 102.194,38.25 C102.194,33.24 106.112,29.178 110.944,29.178 C115.776,29.178 119.694,33.24 119.694,38.25" fill="#29ABE2"/>
    <path d="M119.694,38.25 C119.694,43.26 115.776,47.322 110.944,47.322 C106.112,47.322 102.194,43.26 102.194,38.25 C102.194,33.24 106.112,29.178 110.944,29.178 C115.776,29.178 119.694,33.24 119.694,38.25 z" fill-opacity="0" stroke="#000000" stroke-width="2"/>
    <path d="M119.694,78.25 C119.694,83.26 115.776,87.322 110.944,87.322 C106.112,87.322 102.194,83.26 102.194,78.25 C102.194,73.24 106.112,69.178 110.944,69.178 C115.776,69.178 119.694,73.24 119.694,78.25" fill="#29ABE2"/>
    <path d="M119.694,78.25 C119.694,83.26 115.776,87.322 110.944,87.322 C106.112,87.322 102.194,83.26 102.194,78.25 C102.194,73.24 106.112,69.178 110.944,69.178 C115.776,69.178 119.694,73.24 119.694,78.25 z" fill-opacity="0" stroke="#000000" stroke-width="2"/>
    <path d="M99.077,110.393 C99.077,115.403 95.159,119.465 90.327,119.465 C85.495,119.465 81.577,115.403 81.577,110.393 C81.577,105.382 85.495,101.32 90.327,101.32 C95.159,101.32 99.077,105.382 99.077,110.393" fill="#29ABE2"/>
    <path d="M99.077,110.393 C99.077,115.403 95.159,119.465 90.327,119.465 C85.495,119.465 81.577,115.403 81.577,110.393 C81.577,105.382 85.495,101.32 90.327,101.32 C95.159,101.32 99.077,105.382 99.077,110.393 z" fill-opacity="0" stroke="#000000" stroke-width="2"/>
    <path d="M103.193,12.25 C103.193,17.26 99.275,21.322 94.443,21.322 C89.611,21.322 85.693,17.26 85.693,12.25 C85.693,7.24 89.611,3.178 94.443,3.178 C99.275,3.178 103.193,7.24 103.193,12.25" fill="#29ABE2"/>
    <path d="M103.193,12.25 C103.193,17.26 99.275,21.322 94.443,21.322 C89.611,21.322 85.693,17.26 85.693,12.25 C85.693,7.24 89.611,3.178 94.443,3.178 C99.275,3.178 103.193,7.24 103.193,12.25 z" fill-opacity="0" stroke="#000000" stroke-width="2"/>
    <path d="M75.073,40.64 C72.591,24.846 77.456,18.799 88.399,18.799" fill-opacity="0" stroke="#000000" stroke-width="2"/>
    <path d="M88.399,52.067 C88.399,53.134 85.693,33.75 102.194,38.25" fill-opacity="0" stroke="#000000" stroke-width="2" stroke-linecap="round"/>
    <path d="M91.75,64.736 C98.154,57.411 109.25,57.681 110.902,69.424" fill-opacity="0" stroke="#000000" stroke-width="2"/>
    <path d="M73.335,59.865 C73.335,63.237 71.809,65.969 69.928,65.969 C68.045,65.969 66.519,63.237 66.519,59.865 C66.519,56.493 68.045,53.761 69.928,53.761 C71.809,53.761 73.335,56.493 73.335,59.865" fill="#000000"/>
    <path d="M73.335,59.865 C73.335,63.237 71.809,65.969 69.928,65.969 C68.045,65.969 66.519,63.237 66.519,59.865 C66.519,56.493 68.045,53.761 69.928,53.761 C71.809,53.761 73.335,56.493 73.335,59.865 z" fill-opacity="0" stroke="#000000" stroke-width="3"/>
    <path d="M78.099,87.322 C97,85.75 94.422,95.061 93.566,102.05" fill-opacity="0" stroke="#000000" stroke-width="2"/>
    <path d="M2.438,38.785 C2.438,43.795 6.356,47.857 11.188,47.857 C16.02,47.857 19.938,43.795 19.938,38.785 C19.938,33.775 16.02,29.713 11.188,29.713 C6.356,29.713 2.438,33.775 2.438,38.785" fill="#29ABE2"/>
    <path d="M2.438,38.785 C2.438,43.795 6.356,47.857 11.188,47.857 C16.02,47.857 19.938,43.795 19.938,38.785 C19.938,33.775 16.02,29.713 11.188,29.713 C6.356,29.713 2.438,33.775 2.438,38.785 z" fill-opacity="0" stroke="#000000" stroke-width="2"/>
    <path d="M2.438,78.785 C2.438,83.795 6.356,87.857 11.188,87.857 C16.02,87.857 19.938,83.795 19.938,78.785 C19.938,73.775 16.02,69.713 11.188,69.713 C6.356,69.713 2.438,73.775 2.438,78.785" fill="#29ABE2"/>
    <path d="M2.438,78.785 C2.438,83.795 6.356,87.857 11.188,87.857 C16.02,87.857 19.938,83.795 19.938,78.785 C19.938,73.775 16.02,69.713 11.188,69.713 C6.356,69.713 2.438,73.775 2.438,78.785 z" fill-opacity="0" stroke="#000000" stroke-width="2"/>
    <path d="M23.055,109.928 C23.055,114.938 26.973,119 31.805,119 C36.637,119 40.555,114.938 40.555,109.928 C40.555,104.917 36.637,100.855 31.805,100.855 C26.973,100.855 23.055,104.917 23.055,109.928" fill="#29ABE2"/>
    <path d="M23.055,109.928 C23.055,114.938 26.973,119 31.805,119 C36.637,119 40.555,114.938 40.555,109.928 C40.555,104.917 36.637,100.855 31.805,100.855 C26.973,100.855 23.055,104.917 23.055,109.928 z" fill-opacity="0" stroke="#000000" stroke-width="2"/>
    <path d="M18.939,12.785 C18.939,17.795 22.857,21.857 27.689,21.857 C32.521,21.857 36.438,17.795 36.438,12.785 C36.438,7.775 32.521,3.713 27.689,3.713 C22.857,3.713 18.939,7.775 18.939,12.785" fill="#29ABE2"/>
    <path d="M18.939,12.785 C18.939,17.795 22.857,21.857 27.689,21.857 C32.521,21.857 36.438,17.795 36.438,12.785 C36.438,7.775 32.521,3.713 27.689,3.713 C22.857,3.713 18.939,7.775 18.939,12.785 z" fill-opacity="0" stroke="#000000" stroke-width="2"/>
    <path d="M47.059,41.175 C49.541,25.381 44.676,19.334 33.733,19.334" fill-opacity="0" stroke="#000000" stroke-width="2"/>
    <path d="M33.732,52.603 C33.732,53.669 36.438,34.285 19.937,38.785" fill-opacity="0" stroke="#000000" stroke-width="2" stroke-linecap="round"/>
    <path d="M44.033,86.857 C25.132,85.285 27.71,94.596 28.566,101.585" fill-opacity="0" stroke="#000000" stroke-width="2"/>
    <path d="M30.902,64.736 C24.498,57.411 13.402,57.681 11.75,69.424" fill-opacity="0" stroke="#000000" stroke-width="2"/>
  </g>
</svg>
